# This file uses centimeters as units for non-parametric coordinates.

mtllib andry3.mtl
g default
v 0.651381 -0.867681 0.187126
v 0.649645 -0.880736 0.168664
v 0.639160 -0.890627 0.154676
v 0.624381 -0.894444 0.149278
v 0.642889 -0.854000 0.206474
v -0.639160 -0.890628 0.154676
v -0.649645 -0.880737 0.168664
v -0.651382 -0.867682 0.187126
v -0.642890 -0.854001 0.206474
v -0.624382 -0.894445 0.149278
v -0.019239 -0.236303 1.080031
v -0.000000 -0.233327 1.084240
v 0.019239 -0.236303 1.080031
v 0.033323 -0.244434 1.068532
v -0.033323 -0.244434 1.068532
v -0.503462 -0.860636 0.359052
v -0.033323 -0.390498 1.023929
v -0.019239 -0.382366 1.035428
v -0.000000 -0.379390 1.039637
v 0.019239 -0.382366 1.035428
v 0.033323 -0.390498 1.023929
v 0.503462 -0.860636 0.359052
v 0.511954 -0.874317 0.339704
v 0.510217 -0.887372 0.321241
v 0.499733 -0.897263 0.307254
v 0.484954 -0.901080 0.301856
v -0.484954 -0.901080 0.301856
v -0.499733 -0.897263 0.307254
v -0.510217 -0.887372 0.321241
v -0.511954 -0.874317 0.339704
v -0.394378 -0.830073 0.402274
v -0.026103 -0.461798 0.923094
v -0.401031 -0.840790 0.387118
v -0.399670 -0.851017 0.372656
v -0.391457 -0.858765 0.361699
v -0.379881 -0.861755 0.357470
v 0.379880 -0.861754 0.357470
v 0.391457 -0.858765 0.361699
v 0.399670 -0.851017 0.372656
v 0.401030 -0.840790 0.387118
v 0.394378 -0.830074 0.402274
v 0.026103 -0.461798 0.923094
v 0.015071 -0.455429 0.932102
v -0.000000 -0.453097 0.935400
v -0.015071 -0.455429 0.932102
v -0.000000 -0.296612 0.994741
v -0.016428 -0.299154 0.991147
v 0.016428 -0.299154 0.991147
v 0.028454 -0.306097 0.981328
v 0.548956 -0.826598 0.245226
v 0.556207 -0.838280 0.228705
v 0.554724 -0.849428 0.212940
v 0.545772 -0.857874 0.200996
v 0.533152 -0.861133 0.196387
v -0.533152 -0.861133 0.196387
v -0.545772 -0.857874 0.200996
v -0.554725 -0.849428 0.212940
v -0.556207 -0.838281 0.228705
v -0.548956 -0.826599 0.245226
v -0.028454 -0.306097 0.981328
vt 0.000000 0.000000
vt 0.000000 0.000000
vt 0.000000 0.000000
vt 0.000000 0.000000
vt 0.000000 0.000000
vt -0.000000 -0.000000
vt 0.000000 0.000000
vt 0.000000 0.000000
vt 0.000000 0.000000
vt 0.000000 0.000000
vt 0.000000 0.000000
vt 0.000000 0.000000
vt 0.000000 0.000000
vt -0.000000 -0.000000
vt -0.000000 -0.000000
vt -0.000000 -0.000000
vt 0.000000 0.000000
vt 0.000000 0.000000
vt 0.000000 0.000000
vt -0.000000 -0.000000
vt -0.000000 -0.000000
vt -0.000000 -0.000000
vt 0.000000 0.000000
vt 0.000000 0.000000
vt 0.000000 0.000000
vt -0.000000 -0.000000
vt -0.000000 -0.000000
vt -0.000000 -0.000000
vt 0.000000 0.000000
vt 0.000000 0.000000
vt -0.000000 -0.000000
vt -0.000000 -0.000000
vt 0.000000 0.000000
vt 0.000000 0.000000
vt 0.000000 0.000000
vt -0.000000 -0.000000
vt -0.000000 -0.000000
vt 0.000000 0.000000
vt 0.000000 0.000000
vt -0.000000 -0.000000
vt -0.000000 -0.000000
vt -0.000000 -0.000000
vt 0.000000 0.000000
vt 0.000000 0.000000
vt 0.000000 0.000000
vt 0.000000 0.000000
vt 0.000000 0.000000
vt 0.000000 0.000000
vt -0.000000 -0.000000
vt 0.000000 0.000000
vt 0.000000 0.000000
vt 0.000000 0.000000
vt 0.000000 0.000000
vt -0.000000 -0.000000
vt 0.000000 0.000000
vt 0.000000 0.000000
vt 0.000000 0.000000
vt 0.000000 0.000000
vt -0.000000 -0.000000
vt 0.000000 0.000000
vt -0.000000 -0.000000
vt -0.000000 -0.000000
vt 0.000000 0.000000
vt 0.000000 0.000000
vt 0.000000 0.000000
vt -0.000000 -0.000000
vt -0.000000 -0.000000
vt 0.000000 0.000000
vt 0.000000 0.000000
vt -0.000000 -0.000000
vt -0.000000 -0.000000
vt -0.000000 -0.000000
vt 0.000000 0.000000
vt 0.000000 0.000000
vt 0.000000 0.000000
vn -0.725980 -0.200850 0.657733
vn -0.717991 -0.203285 0.665706
vn -0.724126 -0.225003 0.651932
vn -0.727339 -0.202034 0.655866
vn -0.001722 -0.999931 0.011633
vn -0.008253 -0.999321 -0.035920
vn 0.008253 -0.999321 -0.035921
vn 0.001723 -0.999931 0.011633
vn 0.727340 -0.202032 0.655866
vn 0.724127 -0.225002 0.651931
vn 0.717992 -0.203284 0.665706
vn 0.725981 -0.200849 0.657732
vn 0.637104 -0.530551 0.559119
vn 0.567838 -0.661307 0.490136
vn 0.343000 -0.814428 0.468036
vn 0.444581 -0.815387 0.370800
vn 0.224557 -0.912916 0.340820
vn 0.319435 -0.913438 0.252175
vn -0.224552 -0.912917 0.340820
vn -0.319427 -0.913441 0.252174
vn -0.342993 -0.814433 0.468033
vn -0.444570 -0.815394 0.370796
vn -0.637103 -0.530549 0.559122
vn -0.567834 -0.661309 0.490137
vn -0.375265 -0.270709 0.886506
vn -0.280957 -0.280289 0.917879
vn 0.000001 -0.292052 0.956402
vn 0.000001 -0.292052 0.956402
vn 0.375265 -0.270709 0.886506
vn 0.280957 -0.280289 0.917879
vn -0.000000 0.816497 -0.577350
vn -0.000000 0.816497 -0.577350
vn -0.000000 0.816497 -0.577350
vn -0.000000 0.816497 -0.577350
vn -0.000000 0.816497 -0.577350
vn -0.000000 0.816497 -0.577350
vn -0.000000 0.816497 -0.577350
vn -0.000000 0.816497 -0.577350
vn -0.000000 0.816497 -0.577350
vn -0.000000 0.816497 -0.577350
vn -0.000000 0.816497 -0.577350
vn -0.000000 0.816497 -0.577350
vn -0.000000 0.816497 -0.577350
vn -0.000000 0.816497 -0.577350
vn -0.000000 0.816497 -0.577350
vn 0.000002 -0.816497 0.577349
vn 0.000001 -0.816497 0.577350
vn 0.000001 -0.816497 0.577349
vn 0.000001 -0.816497 0.577349
vn -0.000001 -0.816496 0.577351
vn -0.000001 -0.816495 0.577352
vn -0.000000 -0.816497 0.577350
vn -0.000000 -0.816497 0.577350
vn -0.000000 -0.816497 0.577350
vn -0.000000 -0.816497 0.577350
vn -0.000001 -0.816498 0.577349
vn 0.000002 -0.816495 0.577353
vn 0.000003 -0.816494 0.577353
vn -0.000000 -0.816497 0.577350
vn -0.000001 -0.816497 0.577349
vn -0.000000 -0.816497 0.577350
vn -0.000001 -0.816497 0.577350
vn -0.000000 -0.816497 0.577350
vn 0.000001 -0.816497 0.577350
vn -0.000002 -0.816497 0.577350
vn -0.000000 -0.816497 0.577350
vn -0.000001 -0.816497 0.577350
vn -0.000000 -0.816497 0.577350
vn 0.000003 -0.816497 0.577350
vn -0.000001 0.816497 -0.577350
vn -0.000001 0.816497 -0.577350
vn -0.000001 0.816497 -0.577350
vn -0.000000 0.816497 -0.577350
vn 0.000000 0.816497 -0.577349
vn 0.000003 0.816501 -0.577345
vn -0.000006 0.816491 -0.577358
vn -0.000006 0.816490 -0.577360
vn -0.000000 0.816496 -0.577351
vn -0.000001 0.816496 -0.577352
vn -0.000001 0.816497 -0.577350
vn -0.000001 0.816497 -0.577350
vn -0.000001 0.816497 -0.577350
vn -0.000001 0.816497 -0.577350
vn -0.000001 0.816497 -0.577350
s 1
g triangle2:polySurface3 triangle2:polySurface1 triangle2:pPyramid1
usemtl triangle2:blinn3SG
f 17/1/1 15/2/2 9/3/3 16/4/4
f 27/5/5 10/6/6 4/7/7 26/8/8
f 22/9/9 5/10/10 14/11/11 21/12/12
f 22/9/9 23/13/13 1/14/14 5/10/10
f 23/13/13 24/15/15 2/16/16 1/14/14
f 24/15/15 25/17/17 3/18/18 2/16/16
f 25/17/17 26/8/8 4/7/7 3/18/18
f 27/5/5 28/19/19 6/20/20 10/6/6
f 28/19/19 29/21/21 7/22/22 6/20/20
f 29/21/21 30/23/23 8/24/24 7/22/22
f 30/23/23 16/4/4 9/3/3 8/24/24
f 17/1/1 18/25/25 11/26/26 15/2/2
f 18/25/25 19/27/27 12/28/28 11/26/26
f 19/27/27 20/29/29 13/30/30 12/28/28
f 20/29/29 21/12/12 14/11/11 13/30/30
s 4
s 1
f 17/1/46 16/4/47 31/47/48 32/46/49
f 16/4/47 30/23/50 33/48/51 31/47/48
f 30/23/50 29/21/21 34/49/52 33/48/51
f 29/21/21 28/19/19 35/50/53 34/49/52
f 28/19/19 27/5/5 36/51/54 35/50/53
f 27/5/5 26/8/8 37/52/55 36/51/54
f 26/8/8 25/17/17 38/53/56 37/52/55
f 25/17/17 24/15/15 39/54/57 38/53/56
f 24/15/15 23/13/58 40/55/59 39/54/57
f 23/13/58 22/9/60 41/56/61 40/55/59
f 22/9/60 21/12/62 42/57/63 41/56/61
f 21/12/62 20/29/64 43/58/65 42/57/63
f 20/29/64 19/27/66 44/59/67 43/58/65
f 19/27/66 18/25/68 45/60/69 44/59/67
f 18/25/68 17/1/46 32/46/49 45/60/69
s 4
f 11/31/70 12/32/71 46/62/32 47/61/31
f 12/32/71 13/33/72 48/63/33 46/62/32
f 13/33/72 14/34/73 49/64/34 48/63/33
f 14/34/73 5/35/74 50/65/35 49/64/34
f 5/35/74 1/36/75 51/66/36 50/65/35
f 1/36/75 2/37/76 52/67/37 51/66/36
f 2/37/76 3/38/77 53/68/38 52/67/37
f 3/38/77 4/39/78 54/69/39 53/68/38
f 4/39/78 10/40/79 55/70/40 54/69/39
f 10/40/79 6/41/80 56/71/41 55/70/40
f 6/41/80 7/42/81 57/72/42 56/71/41
f 7/42/81 8/43/82 58/73/43 57/72/42
f 8/43/82 9/44/83 59/74/44 58/73/43
f 9/44/83 15/45/84 60/75/45 59/74/44
f 15/45/84 11/31/70 47/61/31 60/75/45